<?xml version="1.0" encoding="UTF-8"?>
<svg id="Ebene_2" xmlns="http://www.w3.org/2000/svg" viewBox="0 0 384.43 149.4">
  <defs>
    <style>
      .cls-1, .cls-2 {
        fill: #fff;
      }

      .cls-2 {
        fill-rule: evenodd;
      }
    </style>
  </defs>
  <g id="Ebene_2-2" data-name="Ebene_2">
    <g id="Gruppe_1">
      <path id="Pfad_1" class="cls-1" d="M68.9,47.45l-1.79,19.81c-7.63-2.73-15.65-4.19-23.75-4.32-10.43,0-15.64,3.73-15.64,11.18,0,4.06,3.96,7.39,11.88,10,11.88,3.8,19.34,6.74,22.38,8.83,7.92,5.23,11.88,13.07,11.88,23.52,0,10.98-4.42,19.41-13.26,25.29-7.65,5.1-17.48,7.64-29.49,7.64-10.17-.15-20.29-1.59-30.09-4.3l1.58-21.58c8.08,4.22,17.03,6.5,26.14,6.67,3.91.1,7.79-.78,11.28-2.55,3.86-1.71,6.29-5.59,6.14-9.8,0-5.22-3.96-9.14-11.88-11.76-13.2-4.44-20.66-7.11-22.38-8.04C3.97,93.19,0,85.54,0,75.09c0-10.45,4.09-18.29,12.28-23.92,7.26-4.97,16.5-7.45,27.71-7.44,7.52,0,17.16,1.24,28.9,3.72"/>
      <path id="Pfad_2" class="cls-1" d="M181.98,46.08v100.97h-25.15v-13.72c-8.89,10.72-20.11,16.07-33.65,16.07-11.68,0-20.51-3.79-26.48-11.37-5.58-6.79-8.37-16.2-8.37-28.23v-63.72h26.54v53.91c0,8.89.73,15.3,2.18,19.22,2.51,6.54,7.52,9.81,15.05,9.81,8.59,0,14.86-3.99,18.81-11.96,3.05-5.88,4.57-13.07,4.56-21.57v-49.4h26.53,0Z"/>
      <path id="Pfad_3" class="cls-1" d="M204.03,147.05V0h26.53v86.46l31.88-40.39h31.48l-38.01,45.09,42.77,55.88h-33.86l-34.25-49.01v49.02h-26.53Z"/>
      <path id="Pfad_4" class="cls-2" d="M308.35,2.55h26.53v25.1h-26.53V2.55ZM308.35,46.07h26.53v100.97h-26.53V46.07Z"/>
      <rect id="Rechteck_1" class="cls-1" x="356.71" y="119.6" width="27.72" height="27.45"/>
    </g>
  </g>
</svg>