<?xml version="1.0" encoding="UTF-8"?>
<svg id="Ebene_2" xmlns="http://www.w3.org/2000/svg" viewBox="0 0 528.99 94.18">
  <defs>
    <style>
      .cls-1 {
        fill: #fff;
      }
    </style>
  </defs>
  <g id="Ebene_2-2" data-name="Ebene_2">
    <g id="Gruppe_8">
      <path id="Pfad_41" class="cls-1" d="M145.68,72.2c6.32,0,9.56-1.38,12.77-5.42,2.53-3.2,4.07-7.92,6.89-20.45,1.21-5.07,2.01-10.24,2.39-15.44,0-6.26-3.09-8.63-11.39-8.63h-20.38l-10.69,49.94h20.4ZM115.46.71h49.05c5.02,0,10.01.62,14.89,1.81,9.42,2.36,15.32,10.43,15.32,20.72,0,4.18-1.26,11.88-3.79,23.1-4.92,22.81-6.89,27.96-13.78,35.75-7.45,8.21-17.43,11.41-34,11.41h-47.65L115.46.71Z"/>
      <path id="Pfad_42" class="cls-1" d="M241.22,37.85c6.46-.09,10.35-.79,11.67-2.09,1.97-1.94,3.65-6.54,3.65-10.29,0-3.34-1.68-4.31-7.45-4.31h-20.23l-3.65,16.7h16.02ZM234.34,73.05c6.18,0,10.12-.69,12.22-2.36,1.68-1.25,2.39-2.5,3.23-5.29.4-1.79.68-3.6.84-5.42.13-1.75-.81-3.4-2.39-4.17-.74-.37-3.51-.65-8.3-.83h-18.41l-3.79,18.07h16.59ZM208.05.71h51.02c17.01,0,23.76,4.45,23.76,15.72,0,8.48-3.23,18.92-7.17,23.09-3.75,3.73-8.66,6.09-13.92,6.68l-.15.41c2.25.09,4.48.52,6.61,1.25,4.42,1.45,7.34,5.65,7.16,10.3-.28,6.15-1.41,12.24-3.37,18.08-2.46,7.43-8.39,13.19-15.88,15.45-5.44,1.26-11,1.87-16.58,1.81h-51.44L208.04.71h0Z"/>
      <path id="Pfad_43" class="cls-1" d="M392.14,93.49h-24.74l6.04-27.82c1.97-9.17,2.95-13.08,8.15-32.41l2.95-10.85h-.85c-2.95,5.56-5.9,11.26-8.86,16.97-1.26,2.36-3.65,6.68-6.89,12.66-2.39,4.17-4.63,8.35-7.02,12.66l-15.74,28.79h-21.64l-3.65-28.94c-1.83-14.04-2.95-23.23-3.38-27.4-.56-5.01-1.12-10.01-1.55-14.76h-.85l-1.68,10.86c-3.09,19.47-3.94,24.76-5.48,32.41l-6.04,27.82h-24.73L296.14.71h39.21l3.09,26.57c1.12,10.85,1.27,10.99,2.1,23.78l.56,7.93h.97l3.8-7.93c5.62-11.55,6.46-13.35,11.94-23.65l14.2-26.71h40.07l-19.96,92.78Z"/>
      <path id="Pfad_44" class="cls-1" d="M425.69,93.49h-20.23l4.63-21.28h20.1l-4.5,21.28Z"/>
      <path id="Pfad_45" class="cls-1" d="M503.11,29.64c.52-1.72.81-3.5.85-5.29,0-4.17-2.81-5.42-11.94-5.42s-12.51.84-14.62,3.47c-1.87,2.54-2.86,5.61-2.82,8.76,0,4.04,1.27,4.73,11.11,5.29,22.49,1.67,22.62,1.67,28.25,3.47,6.61,2.24,9.99,6.81,9.99,13.64-.41,5.9-1.49,11.73-3.23,17.38-3.23,11.13-7.74,16.56-16.87,20.03-6.18,2.36-12.93,3.2-26.42,3.2-19.26,0-26.85-1.25-32.47-5.29-2.81-2.09-4.77-6.54-4.77-11.26.08-4.79.74-9.55,1.97-14.19h23.89c-.53,1.81-.81,3.68-.85,5.56-.09,1.77.76,3.46,2.24,4.45,2.39,1.25,2.82,1.25,13.78,1.25,7.74,0,8.57-.15,10.83-1.25,3.51-1.81,5.76-6.12,5.76-11.13,0-3.89-1.97-5.02-10.4-5.57-15.31-.98-22.63-1.67-27.26-2.78-8.02-2.09-11.67-6.68-11.67-14.61,0-10.99,4.63-25.04,9.98-30.47,6.47-6.68,16.02-8.9,37.39-8.9,17.01,0,23.62,1.25,28.54,5.14,2.81,2.24,4.64,6.81,4.64,11.69-.11,4.33-.77,8.63-1.97,12.79h-23.89v.03Z"/>
      <path id="Pfad_46" class="cls-1" d="M88.82,93.49h-25.15L83.63.71h25.16l-19.96,92.78Z"/>
      <path id="Pfad_47" class="cls-1" d="M56.98,93.49h-25.16L51.79.71h25.16l-19.96,92.78Z"/>
      <path id="Pfad_48" class="cls-1" d="M25.16,93.49H0L19.96.71h25.16l-19.96,92.78Z"/>
    </g>
  </g>
</svg>