<?xml version="1.0" encoding="UTF-8"?>
<svg id="Ebene_2" xmlns="http://www.w3.org/2000/svg" viewBox="0 0 566.93 255.12">
  <defs>
    <style>
      .cls-1 {
        fill: #006da3;
      }
    </style>
  </defs>
  <g id="facido">
    <g id="FACIDO_x5F_LOGO_x5F_8GRAD">
      <g id="FACIDO">
        <g>
          <path class="cls-1" d="M151.15,99.15v15.01h34.61v19.88h-34.61v30.96h-25.83v-86.53h63.28s0,20.69,0,20.69h-37.45Z"/>
          <path class="cls-1" d="M240.91,165l-4.19-14.2h-27.04s-4.6,14.2-4.6,14.2h-27.18s30.56-86.53,30.56-86.53h30.29s29.48,86.53,29.48,86.53h-27.31ZM223.2,99.83l-8.79,31.91h17.58s-8.79-31.91-8.79-31.91Z"/>
          <path class="cls-1" d="M303.31,166.35c-34.48,0-40.7-22.99-40.7-44.62s6.36-44.62,40.7-44.62c29.75,0,39.89,17.44,39.89,37.72h-25.96c-1.35-12.57-5.27-16.77-13.93-16.77-12.71,0-14.47,10.82-14.47,23.66s1.08,23.8,14.47,23.8c8.79,0,12.3-4.19,13.93-17.17h25.96c0,21.23-10.01,37.99-39.89,37.99Z"/>
          <path class="cls-1" d="M349.7,165v-86.53h25.96s0,86.53,0,86.53h-25.96Z"/>
          <path class="cls-1" d="M417.12,165h-33.4s0-86.53,0-86.53h34.75c27.85,0,40.97,16.63,40.97,42.73s-14.06,43.81-42.32,43.81ZM414.42,99.15h-4.73v45.16h4.19c12.57,0,20.01-3.24,20.01-23.26s-6.76-21.9-19.47-21.9Z"/>
          <path class="cls-1" d="M505.59,166.35c-35.29,0-41.91-22.85-41.91-44.62s6.76-44.62,41.91-44.62c35.29,0,42.05,22.85,42.05,44.75s-6.76,44.48-42.05,44.48ZM505.59,98.07c-14.74,0-15.68,10.82-15.68,23.66s.95,23.8,15.68,23.8c14.87,0,15.68-10.95,15.68-23.66s-.81-23.8-15.68-23.8Z"/>
        </g>
        <g>
          <path class="cls-1" d="M336.61,186.27v3.61h-2.14s0-3.61,0-3.61l-4.5-8.29h2.16s3.44,6.71,3.44,6.71l3.61-6.71h2.14s-4.7,8.29-4.7,8.29Z"/>
          <path class="cls-1" d="M346.94,190.01c-4.57,0-5.67-2.84-5.67-6.1s1.12-6.06,5.67-6.06c4.59,0,5.67,2.81,5.67,6.1s-1.08,6.06-5.67,6.06ZM346.94,179.54c-2.96,0-3.59,1.93-3.59,4.37s.63,4.4,3.59,4.4c2.99,0,3.61-1.95,3.61-4.37s-.61-4.4-3.61-4.4Z"/>
          <path class="cls-1" d="M364.61,184.54c0,3.88-1.45,5.46-5.07,5.46-3.62,0-5.06-1.58-5.06-5.46v-6.56h2.06s0,6.47,0,6.47c0,2.45.56,3.75,2.99,3.75,2.45,0,3.01-1.3,3.01-3.75v-6.47h2.06v6.56Z"/>
          <path class="cls-1" d="M373.68,189.88l-4.79-4.67v4.67h-2.04v-11.89h4.24c4.48,0,4.94,2.29,4.94,3.81,0,2.94-2.34,3.62-4.63,3.62l5.04,4.46h-2.75ZM371.17,179.65h-2.29v4.24h2.32c2.42,0,2.75-1.15,2.75-2.1s-.35-2.14-2.79-2.14Z"/>
          <path class="cls-1" d="M386.98,189.88h-4.72s0-11.89,0-11.89h4.65c3.18,0,4.44,1.28,4.44,2.97,0,1.13-.43,2.34-1.58,2.6,1.28.35,1.95,1.65,1.95,2.86,0,1.8-1.1,3.46-4.74,3.46ZM386.98,179.67h-2.68v3.38h2.79c1.91,0,2.25-.87,2.25-1.67,0-.99-.39-1.71-2.36-1.71ZM387.1,184.63h-2.79v3.57h2.75c2.19,0,2.56-.78,2.56-1.8,0-1.58-1.26-1.77-2.53-1.77Z"/>
          <path class="cls-1" d="M403.47,184.54c0,3.88-1.45,5.46-5.07,5.46-3.62,0-5.06-1.58-5.06-5.46v-6.56h2.06s0,6.47,0,6.47c0,2.45.56,3.75,2.99,3.75,2.45,0,3.01-1.3,3.01-3.75v-6.47h2.06v6.56Z"/>
          <path class="cls-1" d="M410.69,190.01c-3.9,0-5.32-1.71-5.35-4.39h2.04c.06,1.49.84,2.62,3.25,2.62,2.27,0,2.86-.82,2.86-1.75,0-2.79-7.75-.84-7.82-5,0-2.14,1.34-3.64,4.76-3.64,3.44,0,4.89,1.63,4.91,4.18h-2.03c-.09-1.64-.93-2.47-2.96-2.47-1.84,0-2.66.63-2.66,1.73,0,2.56,7.81.71,7.81,5.11,0,1.69-1.08,3.61-4.81,3.61Z"/>
          <path class="cls-1" d="M417.62,189.88v-11.89h2.04v11.89h-2.04Z"/>
          <path class="cls-1" d="M430.41,189.88l-6.23-9.29v9.29h-2.04s0-11.89,0-11.89h2.62s6.13,9.22,6.13,9.22v-9.22h2.04v11.89h-2.53Z"/>
          <path class="cls-1" d="M435.39,189.88v-11.89h8.27s0,1.67,0,1.67h-6.24s0,3.33,0,3.33h5.67s0,1.65,0,1.65h-5.67s0,3.57,0,3.57h6.24v1.67h-8.27Z"/>
          <path class="cls-1" d="M450.55,190.01c-3.9,0-5.32-1.71-5.35-4.39h2.04c.06,1.49.84,2.62,3.25,2.62,2.27,0,2.86-.82,2.86-1.75,0-2.79-7.75-.84-7.82-5,0-2.14,1.34-3.64,4.76-3.64,3.44,0,4.89,1.63,4.91,4.18h-2.03c-.09-1.64-.93-2.47-2.96-2.47-1.84,0-2.66.63-2.66,1.73,0,2.56,7.81.71,7.81,5.11,0,1.69-1.08,3.61-4.81,3.61Z"/>
          <path class="cls-1" d="M462.2,190.01c-3.9,0-5.32-1.71-5.35-4.39h2.04c.06,1.49.84,2.62,3.25,2.62,2.27,0,2.86-.82,2.86-1.75,0-2.79-7.75-.84-7.82-5,0-2.14,1.34-3.64,4.76-3.64,3.44,0,4.89,1.63,4.91,4.18h-2.03c-.09-1.64-.93-2.47-2.96-2.47-1.84,0-2.66.63-2.66,1.73,0,2.56,7.81.71,7.81,5.11,0,1.69-1.08,3.61-4.81,3.61Z"/>
          <path class="cls-1" d="M473.31,189.88v-11.89h8.27v1.67h-6.24v3.33h5.67s0,1.65,0,1.65h-5.67v3.57h6.24v1.67h-8.27Z"/>
          <path class="cls-1" d="M491.8,189.88l-6.23-9.29v9.29h-2.04v-11.89h2.62s6.13,9.22,6.13,9.22v-9.22h2.05v11.89h-2.53Z"/>
          <path class="cls-1" d="M505.16,189.88l-.8-2.32h-5.84s-.86,2.32-.86,2.32h-2.14s4.57-11.89,4.57-11.89h2.77s4.46,11.89,4.46,11.89h-2.17ZM501.44,179.3l-2.42,6.77h4.81l-2.4-6.77Z"/>
          <path class="cls-1" d="M513.22,189.88h-4.72s0-11.89,0-11.89h4.65c3.18,0,4.44,1.28,4.44,2.97,0,1.13-.43,2.34-1.58,2.6,1.28.35,1.95,1.65,1.95,2.86,0,1.8-1.1,3.46-4.74,3.46ZM513.22,179.67h-2.68s0,3.38,0,3.38h2.79c1.91,0,2.25-.87,2.25-1.67,0-.99-.39-1.71-2.36-1.71ZM513.34,184.63h-2.79v3.57h2.75c2.19,0,2.56-.78,2.56-1.8,0-1.58-1.26-1.77-2.53-1.77Z"/>
          <path class="cls-1" d="M519.84,189.88v-11.89h2.05v10.22h4.52s0,1.67,0,1.67h-6.56Z"/>
          <path class="cls-1" d="M527.88,189.88v-11.89h8.27v1.67h-6.24s0,3.33,0,3.33h5.67s0,1.65,0,1.65h-5.67v3.57h6.24s0,1.67,0,1.67h-8.27Z"/>
          <path class="cls-1" d="M544.89,189.88l-4.8-4.67v4.67h-2.04v-11.89h4.24c4.48,0,4.94,2.29,4.94,3.81,0,2.94-2.34,3.62-4.63,3.62l5.04,4.46h-2.75ZM542.38,179.65h-2.29v4.24h2.32c2.42,0,2.75-1.15,2.75-2.1s-.35-2.14-2.79-2.14Z"/>
        </g>
      </g>
      <g id="ICON">
        <polygon class="cls-1" points="75.62 78.48 36.34 78.48 73.2 121.73 36.34 164.98 75.62 164.98 112.48 121.73 75.62 78.48"/>
        <polygon class="cls-1" points="41.3 97.5 19.29 97.5 39.94 121.73 19.29 145.97 41.3 145.97 61.95 121.73 41.3 97.5"/>
      </g>
    </g>
  </g>
</svg>