<?xml version="1.0" encoding="UTF-8"?>
<svg id="Ebene_1" data-name="Ebene 1" xmlns="http://www.w3.org/2000/svg" viewBox="0 0 49.17 11.47">
  <defs>
    <style>
      .cls-1 {
        fill: #4d4e56;
      }
    </style>
  </defs>
  <g id="sukigroup_logo_light_safearea">
    <g>
      <path class="cls-1" d="M.15,7.48c.5,.25,1.02,.4,1.57,.4,.43,0,1.04-.17,1.04-.75,0-.51-.5-.66-1.14-.84-1.07-.28-1.63-.72-1.63-1.75,0-1.23,1.03-1.9,2.41-1.9,.49,0,.96,.05,1.72,.23l-.11,1.2c-.55-.19-.91-.26-1.41-.26-.56,0-.95,.23-.95,.68,0,.34,.33,.51,1.06,.71,1.14,.32,1.71,.83,1.71,1.85,0,1.34-1.15,1.99-2.58,1.99-.58,0-1.21-.11-1.79-.26l.09-1.31Z"/>
      <path class="cls-1" d="M9.47,8.9v-.83h-.02c-.52,.63-1.21,.97-2.01,.97-1.37,0-2.08-.91-2.08-2.4V2.79h1.59v3.49c0,1.22,.45,1.53,1.03,1.53,.96,0,1.4-.89,1.4-2.07V2.79h1.59v6.11h-1.51Z"/>
      <polygon class="cls-1" points="16.01 8.9 13.97 5.93 13.94 5.93 13.94 8.9 12.35 8.9 12.35 0 13.94 0 13.94 5.23 13.97 5.23 15.87 2.79 17.74 2.79 15.46 5.52 18.03 8.9 16.01 8.9"/>
      <path class="cls-1" d="M18.66,.15h1.59V1.67h-1.59V.15Zm0,2.63h1.59v6.11h-1.59V2.79Z"/>
      <path class="cls-1" d="M25.8,7.71h-.02c-.34,.76-.94,1.19-1.84,1.19-1.85,0-2.55-1.57-2.55-3.03,0-2.04,.87-3.17,2.49-3.17,.83,0,1.34,.12,1.89,.83h.02v-.69h.75v5.58c0,1.89-.96,3.04-2.84,3.04-.58,0-1.2-.12-1.83-.32l.06-.75c.56,.28,1.22,.43,1.78,.43,1.69,0,2.09-1.06,2.09-2.92v-.19Zm-.01-1.85c0-1.7-.58-2.52-1.8-2.52s-1.78,1.02-1.78,2.53c0,1.26,.52,2.39,1.75,2.39,1.33,0,1.84-1.25,1.84-2.4"/>
      <path class="cls-1" d="M28.04,8.9V3.69c0-.15-.01-.52-.05-.84h.75v1.16h.02c.34-.84,.9-1.31,1.56-1.31,.18,0,.39,.04,.52,.07v.78c-.15-.05-.36-.07-.53-.07-1.15,0-1.52,1.21-1.52,2.43v2.98h-.75Z"/>
      <path class="cls-1" d="M31.02,5.88c0-1.78,.97-3.17,2.82-3.17s2.83,1.41,2.83,3.17-.93,3.17-2.83,3.17-2.82-1.44-2.82-3.17m4.83,0c0-1.4-.7-2.53-2.02-2.53-1.2,0-1.99,1.01-1.99,2.53,0,1.44,.72,2.53,2.01,2.53s2.01-1.1,2.01-2.53"/>
      <path class="cls-1" d="M41.83,8.9v-1.08h-.02c-.38,.85-1.02,1.22-1.96,1.22-1.46,0-2.07-.96-2.07-2.3V2.85h.75v3.7c0,.84,.24,1.85,1.44,1.85,1.39,0,1.79-1.26,1.79-2.17V2.85h.75V7.9c0,.25,.02,.78,.05,1h-.72Z"/>
      <path class="cls-1" d="M44.02,11.39V2.85h.75l-.05,1.1h.02c.46-.89,1.13-1.25,1.93-1.25,1.57,0,2.49,1.04,2.49,3.17,0,1.88-.89,3.17-2.49,3.17-.93,0-1.51-.37-1.89-1.17h-.02v3.52h-.75Zm4.33-5.52c0-1.47-.55-2.53-1.79-2.53s-1.79,1.34-1.79,2.53,.5,2.53,1.79,2.53c1.22,0,1.79-1.02,1.79-2.53"/>
    </g>
  </g>
</svg>