<?xml version="1.0" encoding="UTF-8"?>
<svg id="Ebene_2" xmlns="http://www.w3.org/2000/svg" viewBox="0 0 274.45 149">
  <defs>
    <style>
      .cls-1 {
        fill: #fff;
      }
    </style>
  </defs>
  <g id="Ebene_2-2" data-name="Ebene_2">
    <g id="Gruppe_171">
      <path id="Pfad_197" class="cls-1" d="M160.75,2.32c-6.77-.93-13.71-1.59-20.81-1.97C64.81-3.6,2.16,26.46,0,67.48,23.06,31.44,92.12,4.2,160.76,2.32"/>
      <path id="Pfad_198" class="cls-1" d="M113.69,146.69c6.77.93,13.72,1.59,20.8,1.96,75.13,3.94,137.79-26.11,139.96-67.13-23.08,36.04-92.13,63.28-160.76,65.17"/>
      <path id="Pfad_199" class="cls-1" d="M183.6,112.51l.36-4.12c.11-.94.28-1.78.44-2.61h-.07c-.61.83-1.3,1.72-2.02,2.6l-3.56,4.14h4.86ZM177.62,113.96l-3.83,4.52h-2.16l12.33-14.34h2.51l-1.34,14.34h-2.22l.43-4.52h-5.72Z"/>
      <path id="Pfad_200" class="cls-1" d="M188.31,116.21c.96.66,2.1.99,3.26.94,2.13,0,3.84-.98,4.54-2.45.63-1.31.15-2.1-1.68-2.83-2.22-.85-3.26-2.08-2.31-4.08,1.07-2.24,3.95-3.9,7.07-3.9,1.63,0,2.68.33,3.21.7l-1.3,1.5c-.82-.49-1.76-.73-2.72-.68-2.2,0-3.59,1.17-4.07,2.15-.64,1.34.03,2,1.89,2.76,2.27.96,3.09,2.11,2.08,4.22-1.05,2.21-3.8,4.15-7.6,4.15-1.55,0-3.05-.43-3.67-.94l1.29-1.55h0Z"/>
      <path id="Pfad_201" class="cls-1" d="M208.22,104.12l-6.84,14.34h-2.11l6.85-14.34h2.1Z"/>
      <path id="Pfad_202" class="cls-1" d="M215.74,112.51l.36-4.12c.11-.94.28-1.78.44-2.61h-.07c-.61.83-1.3,1.72-2.02,2.59l-3.56,4.14h4.85ZM209.77,113.96l-3.83,4.52h-2.15l12.33-14.34h2.51l-1.34,14.34h-2.22l.43-4.52h-5.71Z"/>
      <path id="Pfad_203" class="cls-1" d="M141.32,98.8h-21.8l12.81-49.94h-20.96l3.87-15.11h64.8l-3.87,15.11h-22.04l-12.81,49.94Z"/>
      <path id="Pfad_204" class="cls-1" d="M67.4,60.77h33.4l-3.64,14.18h-33.4l-6.09,23.84h-21.83l16.69-65.05h58.04l-3.63,14.19h-36.24l-3.3,12.84Z"/>
      <path id="Pfad_205" class="cls-1" d="M184.11,33.87v65.02h34.51l46.58-65.02h-22.59l-36.14,50.09-.21-50.09h-22.15Z"/>
    </g>
  </g>
</svg>