<?xml version="1.0" encoding="UTF-8"?>
<svg id="Layer_1" data-name="Layer 1" xmlns="http://www.w3.org/2000/svg" viewBox="0 0 1179.21 297.64">
  <defs>
    <style>
      .cls-1 {
        fill: #fff;
      }
    </style>
  </defs>
  <path class="cls-1" d="m53.75,136.86c0-20.1,21.4-27.9,40.7-27.9,36.7,0,55.75,16.89,55.75,16.89l19.53-25.37s-23.87-22.63-74.84-22.63c-46.37,0-84,21.02-84,58.21,0,66.71,120.92,57.47,120.92,95.06,0,16.57-20.84,27.02-40.11,27.02-40.42,0-66.58-23.85-66.58-23.85l-21.56,27.9s31.19,29.91,88.13,29.91c50.93,0,83.97-25.47,83.97-59.42,0-67.1-121.92-59.03-121.92-95.82Z"/>
  <path class="cls-1" d="m297.18,78.95c-58.22,0-102.28,42.05-102.28,107.13,0,60.64,44.06,107.13,108.34,107.13,48.91,0,79.21-29.11,79.21-29.11l-16.17-28.7s-25.46,23.85-60.62,23.85-68.33-22.63-70.34-67.5h149.17s1.21-11.72,1.21-16.99c0-52.96-30.72-95.8-88.53-95.8Zm-60.64,83.28c5.65-33.56,29.89-52.16,59.82-52.16,26.28,0,48.11,16.99,49.32,52.16h-109.14Z"/>
  <rect class="cls-1" x="910.35" y="83.8" width="39.21" height="204.55"/>
  <path class="cls-1" d="m516.82,78.95c-26.85,0-45.76,7.15-55.32,21.46v-16.61h-39.25v204.55h39.25v-151.28c0-8.41,4.28-14.86,12.85-19.35,8.56-4.48,19.22-6.73,31.95-6.73,7.18,0,13.42.97,20.49,2.1l11.18-32.88c-6.78-.84-13.83-1.26-21.15-1.26Z"/>
  <path class="cls-1" d="m859.34,36.09h49.15l10.23-30.44s-55.33-1.21-64.23-1.21c-25.87,0-76.82,8.49-76.82,75.99v48.71l-66.2,12.54c-2.05-21.44-8.49-36.77-19.34-45.99-13.37-11.36-35.2-17.04-65.02-17.04-23.61,0-47.61,3.35-71.98,10.03l7.2,31.3c17.24-5,36.11-8.04,58.94-8.04s35.97,3.41,43.19,10.23c3.57,3.37,8.49,10.41,10.21,26.49l-72.17,13.67c-43.81,8.79-61.57,37.38-61.57,62.71,0,44.63,32.7,68.18,84.22,68.18,32.35,0,61.36-5.35,87.03-16.04v-104.02l65.48-12.36v127.58h38.82v-134.9l66.79-12.61v-31.7l-66.79,12.65v-42.84c0-38,27.88-42.86,42.85-42.86Zm-184.04,214.98c-15.24,5.35-31.15,8.07-47.73,8.02-21.41-.07-45.72-.81-45.72-36.08,0-8.71,6.44-26.5,25.96-30.18l67.49-12.74v70.97Z"/>
  <path class="cls-1" d="m1098.89,78.95h0s-.01,0-.02,0c-.02,0-.03,0-.05,0h0c-26.82.02-50.62,12.98-60.17,27.28v-22.43h-39.25v204.55h39.25v-114.44c0-41.62,16.86-62.92,55.32-62.92,14.96,0,42.85,4.95,42.85,42.94v135.47h38.82v-134.47c0-67.45-50.86-75.98-76.75-75.99Z"/>
</svg>